<?xml version="1.0" standalone="no"?><!DOCTYPE svg PUBLIC "-//W3C//DTD SVG 1.1//EN" "http://www.w3.org/Graphics/SVG/1.1/DTD/svg11.dtd"><svg t="1688462813614" class="icon" viewBox="0 0 1024 1024" version="1.1" xmlns="http://www.w3.org/2000/svg" p-id="1557" xmlns:xlink="http://www.w3.org/1999/xlink" width="200" height="200"><path d="M915.90919 428.28025l40.909735 6.785543 1.77339-10.488889 8.708336-12.93766-103.649662-69.574588-7.776104-5.219885-7.837502-2.918469L552.61093 223.932142l-6.92676-2.579755-6.962575 2.308579-347.57209 115.214045-8.804527 2.14792-5.704932 4.046153L53.550637 432.126858l9.832949 13.854543 4.493338 11.238972 39.739073-16.353456L75.734892 485.09114l96.368838 54.05001 0.107447 199.534476-2.349511 4.28356 2.352581 1.310855 0.001023 2.709715 4.859681 0 281.95872 157.194158 7.696286 4.260024 2.344395 1.277086 2.635013 1.726318 9.41851-3.080152 8.748245-3.419889 388.69979-159.572322 0.031722-9.44307L878.607632 546.373879l92.490507-35.759435L915.90919 428.28025zM561.218982 260.057921l245.843174 91.538833-245.843174 92.115977L561.218982 260.057921zM121.002888 475.127208l40.684608-56.45171 5.983271-8.358365 23.439852-32.558533 262.998903 123.622552L411.290297 637.993552 121.002888 475.127208zM203.051579 726.133985l-0.100284-169.629375 226.371704 126.989229 28.646434-91.38636 0.893346 276.69688L203.051579 726.133985zM473.818399 476.500485 225.704508 359.870184l304.674071-100.980879 0 196.376553L473.818399 476.500485zM847.766207 724.616422 489.771743 871.571379l-0.955768-301.186643 45.281299 109.166305 313.667909-121.215736L847.765183 724.616422zM551.061644 639.889739l-57.241702-137.940652 347.098299-130.082684 83.064834 123.892705L551.061644 639.889739z" fill="#a686ba" p-id="1558"></path></svg>